Normalized EMG Linear Envelopes
nRows=119
nColumns=4

endheader
time	 med_gas_r	  soleus_r	 tib_ant_r	
2.79133	  0.003596	  0.005087	  0.001549	
2.8629	  0.003527	  0.005082	  0.001574	
2.93448	  0.003456	  0.005266	  0.001601	
3.00605	  0.003438	  0.005523	  0.001660	
3.07762	  0.003487	  0.005656	  0.001732	
3.14919	  0.003517	  0.005702	  0.001750	
3.22077	  0.003522	  0.005952	  0.001726	
3.29234	  0.003595	  0.006363	  0.001675	
3.36391	  0.003762	  0.006495	  0.001627	
3.43548	  0.003948	  0.006148	  0.001609	
3.50706	  0.004084	  0.005815	  0.001612	
3.57863	  0.004135	  0.005673	  0.001640	
3.6502	  0.004221	  0.005639	  0.001657	
3.72177	  0.004333	  0.005650	  0.001668	
3.79335	  0.004398	  0.005707	  0.001686	
3.86492	  0.004272	  0.005703	  0.001674	
3.93649	  0.004097	  0.005690	  0.001609	
4.00806	  0.004029	  0.005861	  0.001548	
4.07964	  0.004033	  0.005999	  0.001554	
4.15121	  0.003925	  0.005868	  0.001618	
4.22278	  0.003719	  0.005599	  0.001685	
4.29435	  0.003551	  0.005480	  0.001732	
4.36593	  0.003584	  0.005721	  0.001777	
4.4375	  0.004034	  0.006303	  0.001830	
4.50907	  0.004725	  0.006973	  0.001847	
4.58065	  0.005037	  0.007043	  0.001791	
4.65222	  0.004369	  0.005687	  0.001658	
4.72379	  0.001600	  0.002045	  0.001466	
4.79536	 -0.004277	 -0.004773	  0.001200	
4.86694	 -0.011936	 -0.013622	  0.000867	
4.93851	 -0.014341	 -0.016895	  0.000768	
5.01008	  0.005185	  0.004404	  0.001706	
5.08165	  0.072786	  0.080827	  0.004937	
5.15323	  0.208830	  0.237847	  0.011461	
5.2248	  0.382758	  0.444969	  0.019841	
5.29637	  0.486985	  0.563859	  0.024462	
5.36794	  0.482852	  0.548757	  0.023447	
5.43952	  0.434540	  0.474109	  0.020252	
5.51109	  0.388201	  0.400363	  0.017809	
5.58266	  0.355801	  0.354165	  0.016299	
5.65423	  0.341821	  0.340711	  0.015943	
5.72581	  0.348041	  0.338699	  0.016040	
5.79738	  0.354990	  0.331740	  0.016004	
5.86895	  0.350758	  0.326071	  0.015585	
5.94052	  0.345930	  0.329543	  0.015284	
6.0121	  0.348127	  0.334741	  0.016022	
6.08367	  0.363226	  0.341783	  0.017567	
6.15524	  0.380019	  0.348846	  0.019095	
6.22681	  0.391679	  0.355827	  0.020095	
6.29839	  0.400069	  0.362447	  0.020784	
6.36996	  0.414959	  0.369507	  0.021886	
6.44153	  0.428893	  0.378723	  0.022548	
6.5131	  0.429504	  0.373087	  0.022633	
6.58468	  0.418318	  0.347992	  0.022163	
6.65625	  0.407258	  0.326789	  0.021620	
6.72782	  0.405266	  0.317178	  0.021234	
6.7994	  0.413217	  0.320878	  0.020765	
6.87097	  0.424011	  0.326636	  0.019894	
6.94254	  0.422090	  0.331700	  0.018784	
7.01411	  0.406476	  0.338072	  0.018255	
7.08569	  0.394159	  0.339002	  0.018542	
7.15726	  0.403337	  0.332318	  0.019513	
7.22883	  0.434284	  0.325560	  0.020562	
7.3004	  0.481233	  0.325506	  0.021073	
7.37198	  0.521119	  0.333489	  0.020972	
7.44355	  0.550830	  0.349480	  0.020850	
7.51512	  0.585879	  0.381309	  0.021047	
7.58669	  0.584313	  0.400033	  0.020989	
7.65827	  0.529016	  0.390185	  0.020649	
7.72984	  0.473820	  0.370213	  0.020479	
7.80141	  0.447229	  0.348901	  0.020888	
7.87298	  0.448691	  0.324823	  0.022509	
7.94456	  0.473505	  0.298717	  0.024487	
8.01613	  0.516885	  0.287519	  0.025507	
8.0877	  0.574476	  0.294456	  0.025896	
8.15927	  0.636995	  0.312562	  0.026521	
8.23085	  0.684578	  0.331124	  0.027654	
8.30242	  0.702849	  0.346813	  0.028973	
8.37399	  0.689810	  0.354048	  0.029041	
8.44556	  0.655403	  0.356478	  0.027249	
8.51714	  0.608588	  0.347297	  0.024342	
8.58871	  0.557414	  0.318053	  0.021782	
8.66028	  0.525319	  0.297272	  0.020678	
8.73185	  0.506072	  0.293434	  0.020926	
8.80343	  0.481143	  0.302531	  0.021453	
8.875	  0.473381	  0.320329	  0.022569	
8.94657	  0.499848	  0.343545	  0.024262	
9.01815	  0.538544	  0.358963	  0.025778	
9.08972	  0.583541	  0.361001	  0.026805	
9.16129	  0.633445	  0.367285	  0.027874	
9.23286	  0.661922	  0.384139	  0.028259	
9.30444	  0.677673	  0.397187	  0.028545	
9.37601	  0.678642	  0.391705	  0.029688	
9.44758	  0.624614	  0.374115	  0.029640	
9.51915	  0.550519	  0.360312	  0.028194	
9.59073	  0.515997	  0.348001	  0.026736	
9.6623	  0.533251	  0.336701	  0.025786	
9.73387	  0.579042	  0.346864	  0.025442	
9.80544	  0.614714	  0.364952	  0.025276	
9.87702	  0.597929	  0.371963	  0.024581	
9.94859	  0.492831	  0.349875	  0.021915	
10.0202	  0.328899	  0.279191	  0.016902	
10.0917	  0.159071	  0.182629	  0.011339	
10.1633	  0.047442	  0.100460	  0.006792	
10.2349	 -0.001915	  0.042578	  0.003759	
10.3065	 -0.013154	  0.011015	  0.002245	
10.378	 -0.008938	 -0.000335	  0.001696	
10.4496	 -0.002248	 -0.001223	  0.001583	
10.5212	  0.002162	  0.001347	  0.001622	
10.5927	  0.003962	  0.003933	  0.001686	
10.6643	  0.004248	  0.005419	  0.001709	
10.7359	  0.003916	  0.005865	  0.001678	
10.8075	  0.003553	  0.005873	  0.001626	
10.879	  0.003384	  0.005785	  0.001574	
10.9506	  0.003323	  0.005606	  0.001548	
11.0222	  0.003284	  0.005435	  0.001546	
11.0937	  0.003284	  0.005331	  0.001583	
11.1653	  0.003343	  0.005286	  0.001647	
11.2369	  0.003482	  0.005343	  0.001703	
